<?xml version="1.0" encoding="utf-8"?>
<!-- Generator: Adobe Illustrator 27.3.1, SVG Export Plug-In . SVG Version: 6.00 Build 0)  -->
<svg version="1.1" id="Layer_1" xmlns="http://www.w3.org/2000/svg" xmlns:xlink="http://www.w3.org/1999/xlink" x="0px" y="0px"
	 viewBox="0 0 2362.9 2671.1" style="enable-background:new 0 0 2362.9 2671.1;" xml:space="preserve">
<style type="text/css">
	.st0{fill:#FFFFFF;stroke:#FFFFFF;stroke-miterlimit:10;}
	.st1{fill:#5D2DD3;stroke:#000000;stroke-miterlimit:10;}
	.st2{fill-rule:evenodd;clip-rule:evenodd;fill:#1C1C1C;}
	.st3{fill:#1C1C1C;}
</style>
<path class="st0" d="M2274.1,604.8L1278.9,24.7c-55-32.1-122.9-32.3-178.2-0.5L97,600.9C42.2,632.4,8.2,690.7,7.8,754L0.5,1911.5
	c-0.4,63.7,33.3,122.6,88.3,154.7l995.2,580.1c55,32.1,122.9,32.3,178.2,0.5L2266,2070.3c54.8-31.5,88.8-89.8,89.2-153l7.2-1157.6
	C2362.8,696,2329.2,636.9,2274.1,604.8z"/>
<path class="st1" d="M2251.2,618.5L1281,52.9c-55-32.1-122.9-32.3-178.2-0.5L124.3,614.6c-54.8,31.5-88.8,89.8-89.2,153L28,1896.1
	c-0.4,63.7,33.3,122.6,88.3,154.7l970.2,565.6c55,32.1,122.9,32.3,178.2,0.5l978.5-562.2c54.8-31.5,88.8-89.8,89.2-153l7.1-1128.5
	C2339.9,709.5,2306.3,650.6,2251.2,618.5z"/>
<g>
	<path class="st2" d="M1993.2,1054l7.2,988.9h-352.2l207.7,234.5l390.4-225.6c69.2-47.2,87.8-98.1,89.8-172.2v-544.9V773.4
		c-1.6-21.6-2.6-37.4-8-54L1993.2,1054z"/>
	<path class="st2" d="M1588.5,626.7L1992,1016l333.4-304.9c-15.5-47.8-46.7-72.9-93.6-101.6l-471.9-272.4L1273.7,56.4
		c-75.4-36.3-128.9-27-194,8.2L545.9,372.9L787.5,612l801,841.3V626.7L1588.5,626.7z"/>
	<path class="st3" d="M371.1,1615.7l3.5-988.9H762L526.3,384.1L121.6,617.8C52.4,665,33.8,715.9,31.8,790v544.9v561.4
		c1.6,21.5,3.7,35.7,9.1,52.3L371.1,1615.7z"/>
	<path class="st2" d="M779.3,1216.5V2043L377,1647.8l-332.7,311c15.5,47.8,44.9,72.7,91.7,101.4l471.9,272.4l486.2,280.7
		c75.4,36.3,128.9,27,194-8.2l471.9-272.4l85.9-49.6l-240-240L779.3,1216.5z"/>
</g>
</svg>
